#!OML:ASF H:\charlestonDancing\Project 1\Capture day 1\Session 1\femaleDancer.ASF
:FULLY-SPECIFIED
:DEGREES
48
root 2.05777 17.9761 -0.894526 69.7666 -85.4884 -55.5162
lowerback 15.8327 1.41979 7.82954
upperback 2.02459 3.11792 0.393308
thorax -6.30204 1.28363 -4.6481
lowerneck 4.92088 -1.46809 -0.470809
upperneck -1.71841 -2.07407 -2.4175
head -1.3807 -0.990931 -0.615979
rclavicle -7.95139e-015 -1.31198e-014
rhumerus -50.5121 -23.2483 -54.3955
rradius 20.5638
rwrist 29.0478
rhand -36.7555 -45.4424
rfingers 7.12502
rthumb -9.83872 -75.1925
lclavicle -7.95139e-015 -1.31198e-014
lhumerus -37.7057 25.9635 11.1139
lradius 152.204
lwrist 12.0932
lhand 0.278896 13.721
lfingers 7.12502
lthumb 25.8575 41.9831
rfemur -10.9325 -10.3802 28.6215
rtibia 28.3693
rfoot -16.2918 -3.5405
rtoes -26.0833
lfemur -43.4902 -2.31352 -21.7865
ltibia 51.1104
lfoot -1.65068 -16.1701
ltoes -19.334
49
root 1.98742 18.0099 -0.880782 67.8218 -85.7006 -53.6813
lowerback 14.9807 1.47509 7.57484
upperback 1.93126 3.07714 0.170832
thorax -5.94046 1.28918 -4.69706
lowerneck 5.59718 -1.50986 -0.10742
upperneck -1.60731 -2.10084 -2.18592
head -1.46551 -1.0074 -0.600465
rclavicle -2.78299e-014 1.15295e-014
rhumerus -48.5412 -21.0617 -58.4867
rradius 21.9438
rwrist 25.4534
rhand -37.1653 -45.3139
rfingers 7.12502
rthumb -10.2341 -75.0449
lclavicle -2.78299e-014 1.15295e-014
lhumerus -36.4288 24.7725 13.3982
lradius 152.318
lwrist 9.74666
lhand 0.191411 13.2613
lfingers 7.12502
lthumb 25.7737 41.5356
rfemur -11.713 -10.2905 28.1681
rtibia 30.4618
rfoot -15.1952 -3.15481
rtoes -26.9398
lfemur -42.0197 -2.07666 -22.4494
ltibia 50.5313
lfoot -0.706474 -15.6486
ltoes -20.1217
50
root 1.91347 18.019 -0.873026 71.6575 -86.022 -57.7812
lowerback 14.2257 1.68604 7.15172
upperback 1.89085 3.22752 0.0175748
thorax -5.5626 1.39154 -4.61265
lowerneck 6.06327 -1.5407 0.145322
upperneck -1.32281 -2.11131 -1.89172
head -1.45527 -1.01982 -0.548597
rclavicle -1.56046e-014 -1.31198e-014
rhumerus -46.6223 -18.6721 -62.3528
rradius 23.5713
rwrist 22.1141
rhand -37.3404 -45.4694
rfingers 7.12502
rthumb -10.403 -75.1921
lclavicle -1.56046e-014 -1.31198e-014
lhumerus -35.2592 23.977 15.127
lradius 152.542
lwrist 8.85704
lhand 0.992984 13.092
lfingers 7.12502
lthumb 26.5411 41.2527
rfemur -12.7438 -9.88817 27.7511
rtibia 33.4427
rfoot -14.3991 -2.58006
rtoes -27.7515
lfemur -40.3026 -1.53052 -22.9542
ltibia 49.7961
lfoot -0.187518 -14.7651
ltoes -20.3724
51
root 1.83978 18.0001 -0.864926 79.2228 -86.4923 -65.772
lowerback 13.6006 1.93055 6.47637
upperback 1.90899 3.40058 -0.0867965
thorax -5.21009 1.50775 -4.33915
lowerneck 6.24847 -1.5318 0.343529
upperneck -0.789441 -2.07348 -1.70487
head -1.3162 -1.0091 -0.524785
rclavicle -3.1408e-014 8.74653e-015
rhumerus -44.791 -16.0365 -65.9077
rradius 25.5786
rwrist 19.0246
rhand -37.1745 -45.7367
rfingers 7.12502
rthumb -10.243 -75.4674
lclavicle -3.1408e-014 8.74653e-015
lhumerus -34.348 23.3319 16.4376
lradius 152.659
lwrist 8.01336
lhand 1.56137 13.1344
lfingers 7.12502
lthumb 27.085 41.2115
rfemur -13.9843 -9.36908 27.1299
rtibia 37.1178
rfoot -13.6895 -1.7533
rtoes -28.5972
lfemur -38.3154 -0.987391 -23.4715
ltibia 48.8069
lfoot -0.620096 -14.0013
ltoes -23.624
52
root 1.77181 17.946 -0.845199 89.1452 -86.9431 -76.2328
lowerback 13.1339 2.11978 5.86431
upperback 1.94275 3.52748 -0.197973
thorax -4.93244 1.59445 -4.1064
lowerneck 6.33604 -1.49383 0.534448
upperneck -0.207883 -2.00333 -1.6454
head -1.14681 -0.980108 -0.541043
rclavicle -6.1822e-014 1.72943e-014
rhumerus -43.2793 -13.2299 -69.1293
rradius 28.1391
rwrist 16.1989
rhand -37.5218 -46.1569
rfingers 7.12502
rthumb -10.5781 -75.8707
lclavicle -6.1822e-014 1.72943e-014
lhumerus -33.6085 22.9152 17.1276
lradius 152.66
lwrist 7.17448
lhand 2.16821 13.2487
lfingers 7.12502
lthumb 27.6654 41.2342
rfemur -15.4896 -9.02427 26.3437
rtibia 41.3966
rfoot -12.6693 -0.626318
rtoes -29.4222
lfemur -36.2689 -0.905937 -23.8872
ltibia 47.5698
lfoot -0.755033 -13.5684
ltoes -17.6158
53
root 1.70487 17.8653 -0.816899 103.208 -87.082 -90.9845
lowerback 12.8667 2.3179 5.53309
upperback 2.01617 3.72022 -0.269866
thorax -4.7027 1.70479 -4.00811
lowerneck 6.23898 -1.44103 0.692722
upperneck 0.369768 -1.9178 -1.5871
head -0.947253 -0.943214 -0.553435
rclavicle -4.1049e-014 3.49861e-014
rhumerus -42.1988 -10.5994 -71.8404
rradius 31.4527
rwrist 13.9313
rhand -37.9278 -46.6163
rfingers 7.12502
rthumb -10.9696 -76.3097
lclavicle -4.1049e-014 3.49861e-014
lhumerus -32.9934 22.732 17.0987
lradius 152.681
lwrist 6.68336
lhand 2.76157 13.5953
lfingers 7.12502
lthumb 28.2327 41.4884
rfemur -17.2068 -8.74395 25.673
rtibia 46.2185
rfoot -11.2558 0.591899
rtoes -29.94
lfemur -34.2661 -1.2366 -23.9414
ltibia 46.2552
lfoot -1.33546 -16.1074
ltoes -10.0376
54
root 1.6422 17.7682 -0.788279 118.171 -86.9148 -106.787
lowerback 12.8428 2.506 5.28906
upperback 2.16111 3.92334 -0.283963
thorax -4.53038 1.81542 -3.90975
lowerneck 5.82708 -1.33014 0.741843
upperneck 0.930552 -1.76439 -1.51787
head -0.698949 -0.872483 -0.547131
rclavicle -7.55382e-015 3.43897e-014
rhumerus -41.3735 -8.15533 -74.034
rradius 35.5052
rwrist 12.4042
rhand -37.0502 -46.7779
rfingers 7.12502
rthumb -10.123 -76.5144
lclavicle -7.55382e-015 3.43897e-014
lhumerus -32.5575 22.8944 16.2777
lradius 152.705
lwrist 6.66382
lhand 3.15166 14.2288
lfingers 7.12502
lthumb 28.6055 42.0597
rfemur -19.0802 -8.35889 25.0622
rtibia 51.459
rfoot -9.50537 1.62488
rtoes -28.6491
lfemur -32.3333 -1.65883 -23.8895
ltibia 45.1268
lfoot -3.59545 -17.2193
ltoes -6.14595
55
root 1.5978 17.6369 -0.761289 128.532 -86.6692 -117.987
lowerback 13.0206 2.61852 5.11108
upperback 2.27004 4.04789 -0.295788
thorax -4.5119 1.87949 -3.8479
lowerneck 5.44189 -1.23865 0.721394
upperneck 1.22648 -1.64285 -1.4677
head -0.539838 -0.815164 -0.533256
rclavicle -3.926e-015 -5.56597e-015
rhumerus -40.8582 -5.94979 -75.7757
rradius 40.2184
rwrist 11.8872
rhand -35.7456 -47.7671
rfingers 7.12502
rthumb -8.86432 -77.561
lclavicle -3.926e-015 -5.56597e-015
lhumerus -32.2086 23.296 14.8239
lradius 152.668
lwrist 7.10211
lhand 3.25495 15.0559
lfingers 7.12502
lthumb 28.7041 42.8702
rfemur -21.2384 -8.03121 24.448
rtibia 57.0592
rfoot -7.88607 2.40243
rtoes -27.0732
lfemur -30.7247 -2.0655 -24.0124
ltibia 44.4904
lfoot -6.32617 -18.5914
ltoes -5.61187
56
root 1.56959 17.5012 -0.734002 135.626 -86.5913 -125.951
lowerback 13.4192 2.67701 4.91029
upperback 2.33132 4.1091 -0.335155
thorax -4.67137 1.90535 -3.80899
lowerneck 5.22617 -1.2108 0.656445
upperneck 1.25587 -1.6089 -1.42662
head -0.493153 -0.799327 -0.511599
rclavicle -4.47266e-016 -1.90833e-014
rhumerus -40.5819 -4.33637 -76.9612
rradius 45.6923
rwrist 11.541
rhand -34.3767 -49.1204
rfingers 7.12502
rthumb -7.54321 -78.9659
lclavicle -4.47266e-016 -1.90833e-014
lhumerus -31.9994 23.7425 13.0254
lradius 152.638
lwrist 8.10628
lhand 3.16818 15.909
lfingers 7.12502
lthumb 28.6213 43.7373
rfemur -23.533 -7.85934 23.7013
rtibia 62.9505
rfoot -6.95153 2.95072
rtoes -23.6932
lfemur -29.4928 -2.32018 -24.4797
ltibia 44.5255
lfoot -6.45762 -19.2958
ltoes 6.94711
57
root 1.55626 17.3951 -0.708238 142.301 -86.8306 -133.85
lowerback 14.358 2.68615 4.49519
upperback 2.49291 4.08467 -0.395714
thorax -5.04218 1.8829 -3.68914
lowerneck 4.86926 -1.20886 0.649689
upperneck 1.32794 -1.6062 -1.49753
head -0.412239 -0.798403 -0.534032
rclavicle 2.05245e-014 -2.98177e-015
rhumerus -40.1703 -3.27405 -77.6491
rradius 51.5934
rwrist 10.8817
rhand -33.1117 -49.9602
rfingers 7.12502
rthumb -6.32201 -79.8459
lclavicle 2.05245e-014 -2.98177e-015
lhumerus -31.8361 24.2752 11.2499
lradius 152.559
lwrist 9.29783
lhand 3.26884 16.5946
lfingers 7.12502
lthumb 28.7174 44.4066
rfemur -25.5182 -7.89593 22.643
rtibia 69.0709
rfoot -8.23933 1.35556
rtoes -25.0677
lfemur -28.2171 -2.70705 -25.3096
ltibia 44.9045
lfoot -7.6968 -18.9378
ltoes 10.0424
58
root 1.55761 17.2959 -0.690562 144.405 -87.077 -137.557
lowerback 15.7758 2.64873 4.23063
upperback 2.80219 4.02489 -0.346589
thorax -5.51425 1.8348 -3.55409
lowerneck 4.39582 -1.23638 0.79463
upperneck 1.4377 -1.63562 -1.78268
head -0.305342 -0.812245 -0.647533
rclavicle -2.21645e-014 -2.38542e-015
rhumerus -39.5421 -2.49601 -77.9728
rradius 56.8535
rwrist 12.0216
rhand -33.0454 -48.765
rfingers 7.12502
rthumb -6.258 -78.6526
lclavicle -2.21645e-014 -2.38542e-015
lhumerus -31.7199 24.906 9.74403
lradius 152.493
lwrist 10.5465
lhand 3.51056 17.1992
lfingers 7.12502
lthumb 28.9483 44.9718
rfemur -27.1437 -7.99107 21.7926
rtibia 75.2436
rfoot -10.313 -0.111824
rtoes -22.2301
lfemur -26.7628 -2.8508 -25.9167
ltibia 45.3282
lfoot -8.41525 -18.4741
ltoes 9.8192
